# xmcd
#
# Track frame offsets:
#       150
#       32690
#       51592
#       72818
#       97982
#       119247
#       152859
#       169779
#       188333
#
# Disc length: 2853 seconds
#
# Revision: 0
# Processed by: cddbd v1.4PL0 Copyright (c) Steve Scherf et al.
# Submitted via: WhereIsIt 3.52
#
DISCID=770b2309
DTITLE=Taj Mahal - Big Blues - Live at Ronnie Scott's London
DYEAR=1988
DGENRE=Blues, Year: 1988
TTITLE0=Big Blues
TTITLE1=Mail Box Blues
TTITLE2=Staggerlee
TTITLE3=Come On In My Kitchen
TTITLE4=Local Local Girl
TTITLE5=Soothin'
TTITLE6=Fishin' Blues
TTITLE7=Statesboro' Blues
TTITLE8=Everybody Is Somebody
EXTD=
EXTT0=
EXTT1=
EXTT2=
EXTT3=
EXTT4=
EXTT5=
EXTT6=
EXTT7=
EXTT8=
PLAYORDER=
